<?xml version="1.0" encoding="UTF-8"?>
<svg id="Objects" xmlns="http://www.w3.org/2000/svg" version="1.1" viewBox="0 0 576 720">
  <!-- Generator: Adobe Illustrator 29.3.0, SVG Export Plug-In . SVG Version: 2.1.0 Build 146)  -->
  <path d="M373.1,417.4l-12.3-12.1c5-7.9,8.5-16.3,10.7-25.1l18.1-.2c1.9,0,3.5-1.6,3.5-3.6l-.3-32.4c0-1.9-1.6-3.5-3.6-3.5l-17.3.2c-2-8.8-5.4-17.4-10.1-25.3l12.7-12.9c1.4-1.4,1.3-3.6,0-5l-23.1-22.7c-1.4-1.4-3.6-1.3-5,0l-12.1,12.3c-7.9-5-16.3-8.5-25.1-10.7l-.2-18.1c0-1.9-1.6-3.5-3.6-3.5l-32.4.3c-1.9,0-3.5,1.6-3.5,3.6l.2,17.3c-8.8,2-17.4,5.4-25.3,10.1l-12.9-12.7c-1.4-1.4-3.6-1.3-5,0l-22.7,23.1c-1.4,1.4-1.3,3.6,0,5l12.3,12.1c-5,7.9-8.5,16.3-10.7,25.1l-18.1.2c-1.9,0-3.5,1.6-3.5,3.6l.3,32.4c0,1.9,1.6,3.5,3.6,3.5l17.3-.2c2,8.8,5.3,17.4,10.1,25.3l-12.7,12.9c-1.4,1.4-1.3,3.6,0,5l23.1,22.7c1.4,1.4,3.6,1.3,5,0l12.1-12.3c7.9,5,16.3,8.5,25.1,10.7l.2,18.1c0,1.9,1.6,3.5,3.6,3.5l32.4-.3c1.9,0,3.5-1.6,3.5-3.6l-.2-17.3c8.8-2,17.4-5.4,25.3-10.1l12.9,12.7c1.4,1.4,3.6,1.3,5,0l22.7-23.1c1.4-1.4,1.3-3.6,0-5ZM265.5,382.9c-12.9-12.6-13-33.3-.4-46.1,12.6-12.9,33.3-13,46.1-.4,12.9,12.6,13,33.3.4,46.1-12.6,12.9-33.3,13-46.1.4Z" fill ="white" />
</svg>